<mxfile host="app.diagrams.net" modified="2023-06-05T01:07:07.384Z" agent="Mozilla/5.0 (Windows NT 10.0; Win64; x64) AppleWebKit/537.36 (KHTML, like Gecko) Chrome/114.0.0.0 Safari/537.36 Edg/114.0.1823.37" etag="7emNInR_KKd7MkrKXY0h" version="21.3.7" type="device">
  <diagram name="Page-1" id="2YBvvXClWsGukQMizWep">
    <mxGraphModel dx="996" dy="573" grid="1" gridSize="10" guides="1" tooltips="1" connect="1" arrows="1" fold="1" page="1" pageScale="1" pageWidth="850" pageHeight="1100" math="0" shadow="0">
      <root>
        <mxCell id="0" />
        <mxCell id="1" parent="0" />
        <mxCell id="aM9ryv3xv72pqoxQDRHE-1" value="Admin" style="shape=umlLifeline;perimeter=lifelinePerimeter;whiteSpace=wrap;html=1;container=0;dropTarget=0;collapsible=0;recursiveResize=0;outlineConnect=0;portConstraint=eastwest;newEdgeStyle={&quot;edgeStyle&quot;:&quot;elbowEdgeStyle&quot;,&quot;elbow&quot;:&quot;vertical&quot;,&quot;curved&quot;:0,&quot;rounded&quot;:0};" parent="1" vertex="1">
          <mxGeometry x="42.5" y="40" width="100" height="1040" as="geometry" />
        </mxCell>
        <mxCell id="aM9ryv3xv72pqoxQDRHE-5" value="Student" style="shape=umlLifeline;perimeter=lifelinePerimeter;whiteSpace=wrap;html=1;container=0;dropTarget=0;collapsible=0;recursiveResize=0;outlineConnect=0;portConstraint=eastwest;newEdgeStyle={&quot;edgeStyle&quot;:&quot;elbowEdgeStyle&quot;,&quot;elbow&quot;:&quot;vertical&quot;,&quot;curved&quot;:0,&quot;rounded&quot;:0};" parent="1" vertex="1">
          <mxGeometry x="220" y="40" width="100" height="1040" as="geometry" />
        </mxCell>
        <mxCell id="07q8YKuR7XBwSqct6Cw1-1" value="Tutor" style="shape=umlLifeline;perimeter=lifelinePerimeter;whiteSpace=wrap;html=1;container=0;dropTarget=0;collapsible=0;recursiveResize=0;outlineConnect=0;portConstraint=eastwest;newEdgeStyle={&quot;edgeStyle&quot;:&quot;elbowEdgeStyle&quot;,&quot;elbow&quot;:&quot;vertical&quot;,&quot;curved&quot;:0,&quot;rounded&quot;:0};" parent="1" vertex="1">
          <mxGeometry x="402.5" y="40" width="100" height="1040" as="geometry" />
        </mxCell>
        <mxCell id="07q8YKuR7XBwSqct6Cw1-2" value="Database" style="shape=umlLifeline;perimeter=lifelinePerimeter;whiteSpace=wrap;html=1;container=0;dropTarget=0;collapsible=0;recursiveResize=0;outlineConnect=0;portConstraint=eastwest;newEdgeStyle={&quot;edgeStyle&quot;:&quot;elbowEdgeStyle&quot;,&quot;elbow&quot;:&quot;vertical&quot;,&quot;curved&quot;:0,&quot;rounded&quot;:0};" parent="1" vertex="1">
          <mxGeometry x="600" y="40" width="100" height="1040" as="geometry" />
        </mxCell>
        <mxCell id="07q8YKuR7XBwSqct6Cw1-3" value="" style="whiteSpace=wrap;html=1;aspect=fixed;" parent="1" vertex="1">
          <mxGeometry x="65" y="130" width="55" height="55" as="geometry" />
        </mxCell>
        <mxCell id="07q8YKuR7XBwSqct6Cw1-4" value="" style="whiteSpace=wrap;html=1;aspect=fixed;" parent="1" vertex="1">
          <mxGeometry x="630" y="140" width="60" height="60" as="geometry" />
        </mxCell>
        <mxCell id="07q8YKuR7XBwSqct6Cw1-5" value="" style="whiteSpace=wrap;html=1;aspect=fixed;" parent="1" vertex="1">
          <mxGeometry x="425" y="110" width="55" height="55" as="geometry" />
        </mxCell>
        <mxCell id="07q8YKuR7XBwSqct6Cw1-8" value="" style="endArrow=classic;html=1;rounded=0;" parent="1" source="07q8YKuR7XBwSqct6Cw1-1" edge="1">
          <mxGeometry relative="1" as="geometry">
            <mxPoint x="540" y="100" as="sourcePoint" />
            <mxPoint x="480" y="135" as="targetPoint" />
            <Array as="points">
              <mxPoint x="500" y="100" />
              <mxPoint x="500" y="135" />
            </Array>
          </mxGeometry>
        </mxCell>
        <mxCell id="07q8YKuR7XBwSqct6Cw1-9" value="Register" style="edgeLabel;resizable=0;html=1;align=center;verticalAlign=middle;" parent="07q8YKuR7XBwSqct6Cw1-8" connectable="0" vertex="1">
          <mxGeometry relative="1" as="geometry">
            <mxPoint x="10" y="8" as="offset" />
          </mxGeometry>
        </mxCell>
        <mxCell id="07q8YKuR7XBwSqct6Cw1-13" value="Store" style="html=1;verticalAlign=bottom;endArrow=open;dashed=1;endSize=8;edgeStyle=elbowEdgeStyle;elbow=vertical;curved=0;rounded=0;exitX=1;exitY=0.75;exitDx=0;exitDy=0;" parent="1" source="07q8YKuR7XBwSqct6Cw1-5" edge="1">
          <mxGeometry relative="1" as="geometry">
            <mxPoint x="520" y="170" as="sourcePoint" />
            <mxPoint x="630" y="151" as="targetPoint" />
          </mxGeometry>
        </mxCell>
        <mxCell id="SS8NwStUUSiLG5TMzSWF-2" value="Confirmation" style="html=1;verticalAlign=bottom;endArrow=open;dashed=1;endSize=8;edgeStyle=elbowEdgeStyle;elbow=vertical;curved=0;rounded=0;" parent="1" target="07q8YKuR7XBwSqct6Cw1-1" edge="1">
          <mxGeometry relative="1" as="geometry">
            <mxPoint x="630" y="180" as="sourcePoint" />
            <mxPoint x="380" y="300" as="targetPoint" />
            <Array as="points">
              <mxPoint x="540" y="180" />
              <mxPoint x="530" y="180" />
            </Array>
          </mxGeometry>
        </mxCell>
        <mxCell id="SS8NwStUUSiLG5TMzSWF-3" value="" style="whiteSpace=wrap;html=1;aspect=fixed;" parent="1" vertex="1">
          <mxGeometry x="245" y="150" width="55" height="55" as="geometry" />
        </mxCell>
        <mxCell id="SS8NwStUUSiLG5TMzSWF-4" value="" style="endArrow=classic;html=1;rounded=0;" parent="1" edge="1">
          <mxGeometry relative="1" as="geometry">
            <mxPoint x="270" y="140" as="sourcePoint" />
            <mxPoint x="300" y="175" as="targetPoint" />
            <Array as="points">
              <mxPoint x="320" y="140" />
              <mxPoint x="320" y="175" />
            </Array>
          </mxGeometry>
        </mxCell>
        <mxCell id="SS8NwStUUSiLG5TMzSWF-5" value="Register" style="edgeLabel;resizable=0;html=1;align=center;verticalAlign=middle;" parent="SS8NwStUUSiLG5TMzSWF-4" connectable="0" vertex="1">
          <mxGeometry relative="1" as="geometry">
            <mxPoint x="10" y="8" as="offset" />
          </mxGeometry>
        </mxCell>
        <mxCell id="SS8NwStUUSiLG5TMzSWF-6" value="" style="html=1;verticalAlign=bottom;endArrow=open;dashed=1;endSize=8;edgeStyle=elbowEdgeStyle;elbow=vertical;curved=0;rounded=0;exitX=1;exitY=0.75;exitDx=0;exitDy=0;" parent="1" edge="1">
          <mxGeometry relative="1" as="geometry">
            <mxPoint x="300" y="190" as="sourcePoint" />
            <mxPoint x="630" y="190" as="targetPoint" />
            <Array as="points">
              <mxPoint x="430" y="190" />
            </Array>
          </mxGeometry>
        </mxCell>
        <mxCell id="SS8NwStUUSiLG5TMzSWF-8" value="Confirmation" style="html=1;verticalAlign=bottom;endArrow=open;dashed=1;endSize=8;edgeStyle=elbowEdgeStyle;elbow=vertical;curved=0;rounded=0;" parent="1" source="07q8YKuR7XBwSqct6Cw1-2" target="aM9ryv3xv72pqoxQDRHE-5" edge="1">
          <mxGeometry x="0.6194" relative="1" as="geometry">
            <mxPoint x="640" y="220" as="sourcePoint" />
            <mxPoint x="370" y="220" as="targetPoint" />
            <Array as="points">
              <mxPoint x="440" y="220" />
              <mxPoint x="510" y="210" />
              <mxPoint x="540" y="220" />
            </Array>
            <mxPoint as="offset" />
          </mxGeometry>
        </mxCell>
        <mxCell id="SS8NwStUUSiLG5TMzSWF-10" value="Store" style="text;html=1;strokeColor=none;fillColor=none;align=center;verticalAlign=middle;whiteSpace=wrap;rounded=0;" parent="1" vertex="1">
          <mxGeometry x="570" y="190" width="40" height="20" as="geometry" />
        </mxCell>
        <mxCell id="SS8NwStUUSiLG5TMzSWF-16" value="" style="endArrow=classic;html=1;rounded=0;" parent="1" edge="1">
          <mxGeometry relative="1" as="geometry">
            <mxPoint x="90" y="120" as="sourcePoint" />
            <mxPoint x="120" y="155" as="targetPoint" />
            <Array as="points">
              <mxPoint x="140" y="120" />
              <mxPoint x="140" y="155" />
            </Array>
          </mxGeometry>
        </mxCell>
        <mxCell id="SS8NwStUUSiLG5TMzSWF-17" value="Login" style="edgeLabel;resizable=0;html=1;align=center;verticalAlign=middle;" parent="SS8NwStUUSiLG5TMzSWF-16" connectable="0" vertex="1">
          <mxGeometry relative="1" as="geometry">
            <mxPoint y="7" as="offset" />
          </mxGeometry>
        </mxCell>
        <mxCell id="SS8NwStUUSiLG5TMzSWF-18" value="" style="whiteSpace=wrap;html=1;aspect=fixed;" parent="1" vertex="1">
          <mxGeometry x="242.5" y="277.5" width="55" height="55" as="geometry" />
        </mxCell>
        <mxCell id="SS8NwStUUSiLG5TMzSWF-19" value="" style="whiteSpace=wrap;html=1;aspect=fixed;" parent="1" vertex="1">
          <mxGeometry x="422.5" y="245" width="55" height="55" as="geometry" />
        </mxCell>
        <mxCell id="SS8NwStUUSiLG5TMzSWF-20" value="" style="whiteSpace=wrap;html=1;aspect=fixed;" parent="1" vertex="1">
          <mxGeometry x="620" y="270" width="60" height="60" as="geometry" />
        </mxCell>
        <mxCell id="SS8NwStUUSiLG5TMzSWF-21" value="" style="endArrow=classic;html=1;rounded=0;" parent="1" edge="1">
          <mxGeometry relative="1" as="geometry">
            <mxPoint x="450" y="230" as="sourcePoint" />
            <mxPoint x="480" y="265" as="targetPoint" />
            <Array as="points">
              <mxPoint x="500" y="230" />
              <mxPoint x="500" y="265" />
            </Array>
          </mxGeometry>
        </mxCell>
        <mxCell id="SS8NwStUUSiLG5TMzSWF-22" value="Login" style="edgeLabel;resizable=0;html=1;align=center;verticalAlign=middle;" parent="SS8NwStUUSiLG5TMzSWF-21" connectable="0" vertex="1">
          <mxGeometry relative="1" as="geometry">
            <mxPoint x="10" y="8" as="offset" />
          </mxGeometry>
        </mxCell>
        <mxCell id="SS8NwStUUSiLG5TMzSWF-23" value="" style="endArrow=classic;html=1;rounded=0;" parent="1" edge="1">
          <mxGeometry relative="1" as="geometry">
            <mxPoint x="270" y="255" as="sourcePoint" />
            <mxPoint x="300" y="290" as="targetPoint" />
            <Array as="points">
              <mxPoint x="320" y="255" />
              <mxPoint x="320" y="290" />
            </Array>
          </mxGeometry>
        </mxCell>
        <mxCell id="SS8NwStUUSiLG5TMzSWF-24" value="Login" style="edgeLabel;resizable=0;html=1;align=center;verticalAlign=middle;" parent="SS8NwStUUSiLG5TMzSWF-23" connectable="0" vertex="1">
          <mxGeometry relative="1" as="geometry">
            <mxPoint x="10" y="8" as="offset" />
          </mxGeometry>
        </mxCell>
        <mxCell id="SS8NwStUUSiLG5TMzSWF-25" value="Check detail" style="html=1;verticalAlign=bottom;endArrow=open;dashed=1;endSize=8;edgeStyle=elbowEdgeStyle;elbow=vertical;curved=0;rounded=0;" parent="1" edge="1">
          <mxGeometry relative="1" as="geometry">
            <mxPoint x="480" y="277.5" as="sourcePoint" />
            <mxPoint x="620" y="277.5" as="targetPoint" />
          </mxGeometry>
        </mxCell>
        <mxCell id="SS8NwStUUSiLG5TMzSWF-26" value="Confirmation" style="html=1;verticalAlign=bottom;endArrow=open;dashed=1;endSize=8;edgeStyle=elbowEdgeStyle;elbow=vertical;curved=0;rounded=0;" parent="1" edge="1">
          <mxGeometry relative="1" as="geometry">
            <mxPoint x="620" y="310" as="sourcePoint" />
            <mxPoint x="450" y="309" as="targetPoint" />
            <Array as="points">
              <mxPoint x="540" y="309" />
              <mxPoint x="530" y="309" />
            </Array>
          </mxGeometry>
        </mxCell>
        <mxCell id="SS8NwStUUSiLG5TMzSWF-27" value="" style="html=1;verticalAlign=bottom;endArrow=open;dashed=1;endSize=8;edgeStyle=elbowEdgeStyle;elbow=vertical;curved=0;rounded=0;exitX=1;exitY=0.75;exitDx=0;exitDy=0;" parent="1" edge="1">
          <mxGeometry relative="1" as="geometry">
            <mxPoint x="297.5" y="320" as="sourcePoint" />
            <mxPoint x="620" y="320" as="targetPoint" />
            <Array as="points">
              <mxPoint x="427.5" y="320" />
            </Array>
          </mxGeometry>
        </mxCell>
        <mxCell id="SS8NwStUUSiLG5TMzSWF-28" value="Confirmation" style="html=1;verticalAlign=bottom;endArrow=open;dashed=1;endSize=8;edgeStyle=elbowEdgeStyle;elbow=vertical;curved=0;rounded=0;" parent="1" edge="1">
          <mxGeometry x="0.6194" relative="1" as="geometry">
            <mxPoint x="650" y="350" as="sourcePoint" />
            <mxPoint x="267.5" y="350" as="targetPoint" />
            <Array as="points">
              <mxPoint x="437.5" y="350" />
              <mxPoint x="507.5" y="340" />
              <mxPoint x="537.5" y="350" />
            </Array>
            <mxPoint as="offset" />
          </mxGeometry>
        </mxCell>
        <mxCell id="SS8NwStUUSiLG5TMzSWF-29" value="Check detail" style="text;html=1;strokeColor=none;fillColor=none;align=center;verticalAlign=middle;whiteSpace=wrap;rounded=0;" parent="1" vertex="1">
          <mxGeometry x="540" y="320" width="70" height="20" as="geometry" />
        </mxCell>
        <mxCell id="SS8NwStUUSiLG5TMzSWF-30" value="" style="whiteSpace=wrap;html=1;aspect=fixed;" parent="1" vertex="1">
          <mxGeometry x="620" y="385" width="60" height="60" as="geometry" />
        </mxCell>
        <mxCell id="SS8NwStUUSiLG5TMzSWF-32" value="View Details" style="html=1;verticalAlign=bottom;endArrow=open;dashed=1;endSize=8;edgeStyle=elbowEdgeStyle;elbow=vertical;curved=0;rounded=0;" parent="1" target="aM9ryv3xv72pqoxQDRHE-1" edge="1">
          <mxGeometry x="0.6194" relative="1" as="geometry">
            <mxPoint x="630" y="380" as="sourcePoint" />
            <mxPoint x="140" y="380" as="targetPoint" />
            <Array as="points">
              <mxPoint x="130" y="370" />
              <mxPoint x="270" y="380" />
              <mxPoint x="540" y="390" />
              <mxPoint x="407.5" y="380" />
              <mxPoint x="477.5" y="370" />
              <mxPoint x="507.5" y="380" />
            </Array>
            <mxPoint as="offset" />
          </mxGeometry>
        </mxCell>
        <mxCell id="SS8NwStUUSiLG5TMzSWF-33" value="" style="whiteSpace=wrap;html=1;aspect=fixed;" parent="1" vertex="1">
          <mxGeometry x="65" y="390" width="55" height="55" as="geometry" />
        </mxCell>
        <mxCell id="SS8NwStUUSiLG5TMzSWF-34" value="" style="endArrow=classic;html=1;rounded=0;" parent="1" edge="1">
          <mxGeometry relative="1" as="geometry">
            <mxPoint x="90" y="380" as="sourcePoint" />
            <mxPoint x="120" y="415" as="targetPoint" />
            <Array as="points">
              <mxPoint x="140" y="380" />
              <mxPoint x="140" y="415" />
            </Array>
          </mxGeometry>
        </mxCell>
        <mxCell id="SS8NwStUUSiLG5TMzSWF-35" value="Verify tutor" style="edgeLabel;resizable=0;html=1;align=center;verticalAlign=middle;" parent="SS8NwStUUSiLG5TMzSWF-34" connectable="0" vertex="1">
          <mxGeometry relative="1" as="geometry">
            <mxPoint x="10" y="12" as="offset" />
          </mxGeometry>
        </mxCell>
        <mxCell id="SS8NwStUUSiLG5TMzSWF-38" value="Store Changes" style="html=1;verticalAlign=bottom;endArrow=open;dashed=1;endSize=8;edgeStyle=elbowEdgeStyle;elbow=vertical;curved=0;rounded=0;" parent="1" edge="1">
          <mxGeometry x="0.6194" relative="1" as="geometry">
            <mxPoint x="120" y="429" as="sourcePoint" />
            <mxPoint x="620" y="429" as="targetPoint" />
            <Array as="points">
              <mxPoint x="557.5" y="429" />
              <mxPoint x="527.5" y="419" />
              <mxPoint x="457.5" y="429" />
            </Array>
            <mxPoint as="offset" />
          </mxGeometry>
        </mxCell>
        <mxCell id="SS8NwStUUSiLG5TMzSWF-41" value="" style="whiteSpace=wrap;html=1;aspect=fixed;" parent="1" vertex="1">
          <mxGeometry x="65" y="480" width="55" height="55" as="geometry" />
        </mxCell>
        <mxCell id="SS8NwStUUSiLG5TMzSWF-42" value="" style="endArrow=classic;html=1;rounded=0;" parent="1" edge="1">
          <mxGeometry relative="1" as="geometry">
            <mxPoint x="90" y="470" as="sourcePoint" />
            <mxPoint x="120" y="520" as="targetPoint" />
            <Array as="points">
              <mxPoint x="140" y="470" />
              <mxPoint x="140" y="520" />
            </Array>
          </mxGeometry>
        </mxCell>
        <mxCell id="SS8NwStUUSiLG5TMzSWF-43" value="Add grade &lt;br&gt;and subjects" style="edgeLabel;resizable=0;html=1;align=center;verticalAlign=middle;" parent="SS8NwStUUSiLG5TMzSWF-42" connectable="0" vertex="1">
          <mxGeometry relative="1" as="geometry">
            <mxPoint x="20" y="7" as="offset" />
          </mxGeometry>
        </mxCell>
        <mxCell id="SS8NwStUUSiLG5TMzSWF-44" value="Store&amp;nbsp;" style="html=1;verticalAlign=bottom;endArrow=open;dashed=1;endSize=8;edgeStyle=elbowEdgeStyle;elbow=vertical;curved=0;rounded=0;" parent="1" edge="1">
          <mxGeometry x="0.6194" relative="1" as="geometry">
            <mxPoint x="120" y="530" as="sourcePoint" />
            <mxPoint x="620" y="530" as="targetPoint" />
            <Array as="points">
              <mxPoint x="557.5" y="530" />
              <mxPoint x="527.5" y="520" />
              <mxPoint x="457.5" y="530" />
            </Array>
            <mxPoint as="offset" />
          </mxGeometry>
        </mxCell>
        <mxCell id="SS8NwStUUSiLG5TMzSWF-45" value="" style="whiteSpace=wrap;html=1;aspect=fixed;" parent="1" vertex="1">
          <mxGeometry x="620" y="510" width="60" height="60" as="geometry" />
        </mxCell>
        <mxCell id="SS8NwStUUSiLG5TMzSWF-46" value="Grade and subjects" style="html=1;verticalAlign=bottom;endArrow=open;dashed=1;endSize=8;edgeStyle=elbowEdgeStyle;elbow=vertical;curved=0;rounded=0;" parent="1" edge="1">
          <mxGeometry x="0.6194" relative="1" as="geometry">
            <mxPoint x="620" y="550" as="sourcePoint" />
            <mxPoint x="270" y="550" as="targetPoint" />
            <Array as="points">
              <mxPoint x="407.5" y="550" />
              <mxPoint x="477.5" y="540" />
              <mxPoint x="507.5" y="550" />
            </Array>
            <mxPoint as="offset" />
          </mxGeometry>
        </mxCell>
        <mxCell id="SS8NwStUUSiLG5TMzSWF-47" value="" style="whiteSpace=wrap;html=1;aspect=fixed;" parent="1" vertex="1">
          <mxGeometry x="242.5" y="580" width="55" height="55" as="geometry" />
        </mxCell>
        <mxCell id="SS8NwStUUSiLG5TMzSWF-48" value="" style="endArrow=classic;html=1;rounded=0;" parent="1" edge="1">
          <mxGeometry relative="1" as="geometry">
            <mxPoint x="270" y="570" as="sourcePoint" />
            <mxPoint x="300" y="605" as="targetPoint" />
            <Array as="points">
              <mxPoint x="320" y="570" />
              <mxPoint x="320" y="605" />
            </Array>
          </mxGeometry>
        </mxCell>
        <mxCell id="SS8NwStUUSiLG5TMzSWF-49" value="Search" style="edgeLabel;resizable=0;html=1;align=center;verticalAlign=middle;" parent="SS8NwStUUSiLG5TMzSWF-48" connectable="0" vertex="1">
          <mxGeometry relative="1" as="geometry">
            <mxPoint x="10" y="8" as="offset" />
          </mxGeometry>
        </mxCell>
        <mxCell id="SS8NwStUUSiLG5TMzSWF-50" value="" style="whiteSpace=wrap;html=1;aspect=fixed;" parent="1" vertex="1">
          <mxGeometry x="620" y="600" width="60" height="60" as="geometry" />
        </mxCell>
        <mxCell id="SS8NwStUUSiLG5TMzSWF-51" value="" style="endArrow=classic;html=1;rounded=0;" parent="1" edge="1">
          <mxGeometry relative="1" as="geometry">
            <mxPoint x="650" y="590" as="sourcePoint" />
            <mxPoint x="680" y="625" as="targetPoint" />
            <Array as="points">
              <mxPoint x="700" y="590" />
              <mxPoint x="700" y="625" />
            </Array>
          </mxGeometry>
        </mxCell>
        <mxCell id="SS8NwStUUSiLG5TMzSWF-52" value="Tutor Info" style="edgeLabel;resizable=0;html=1;align=center;verticalAlign=middle;" parent="SS8NwStUUSiLG5TMzSWF-51" connectable="0" vertex="1">
          <mxGeometry relative="1" as="geometry">
            <mxPoint x="10" y="8" as="offset" />
          </mxGeometry>
        </mxCell>
        <mxCell id="SS8NwStUUSiLG5TMzSWF-53" value="Show tutor location in map" style="html=1;verticalAlign=bottom;endArrow=open;dashed=1;endSize=8;edgeStyle=elbowEdgeStyle;elbow=vertical;curved=0;rounded=0;" parent="1" edge="1">
          <mxGeometry x="0.2143" relative="1" as="geometry">
            <mxPoint x="620" y="650" as="sourcePoint" />
            <mxPoint x="270" y="650" as="targetPoint" />
            <Array as="points">
              <mxPoint x="407.5" y="650" />
              <mxPoint x="477.5" y="640" />
              <mxPoint x="507.5" y="650" />
            </Array>
            <mxPoint x="1" as="offset" />
          </mxGeometry>
        </mxCell>
        <mxCell id="IaA5Ap51ZnX1t-axa5gd-1" value="" style="whiteSpace=wrap;html=1;aspect=fixed;" vertex="1" parent="1">
          <mxGeometry x="242.5" y="680" width="55" height="55" as="geometry" />
        </mxCell>
        <mxCell id="IaA5Ap51ZnX1t-axa5gd-2" value="" style="endArrow=classic;html=1;rounded=0;" edge="1" parent="1">
          <mxGeometry relative="1" as="geometry">
            <mxPoint x="270" y="670" as="sourcePoint" />
            <mxPoint x="300" y="705" as="targetPoint" />
            <Array as="points">
              <mxPoint x="320" y="670" />
              <mxPoint x="320" y="705" />
            </Array>
          </mxGeometry>
        </mxCell>
        <mxCell id="IaA5Ap51ZnX1t-axa5gd-3" value="View detail" style="edgeLabel;resizable=0;html=1;align=center;verticalAlign=middle;" connectable="0" vertex="1" parent="IaA5Ap51ZnX1t-axa5gd-2">
          <mxGeometry relative="1" as="geometry">
            <mxPoint x="10" y="8" as="offset" />
          </mxGeometry>
        </mxCell>
        <mxCell id="IaA5Ap51ZnX1t-axa5gd-4" value="" style="whiteSpace=wrap;html=1;aspect=fixed;" vertex="1" parent="1">
          <mxGeometry x="242.5" y="760" width="55" height="55" as="geometry" />
        </mxCell>
        <mxCell id="IaA5Ap51ZnX1t-axa5gd-5" value="" style="endArrow=classic;html=1;rounded=0;" edge="1" parent="1">
          <mxGeometry relative="1" as="geometry">
            <mxPoint x="270" y="750" as="sourcePoint" />
            <mxPoint x="300" y="785" as="targetPoint" />
            <Array as="points">
              <mxPoint x="320" y="750" />
              <mxPoint x="320" y="785" />
            </Array>
          </mxGeometry>
        </mxCell>
        <mxCell id="IaA5Ap51ZnX1t-axa5gd-6" value="Enroll" style="edgeLabel;resizable=0;html=1;align=center;verticalAlign=middle;" connectable="0" vertex="1" parent="IaA5Ap51ZnX1t-axa5gd-5">
          <mxGeometry relative="1" as="geometry">
            <mxPoint x="10" y="8" as="offset" />
          </mxGeometry>
        </mxCell>
        <mxCell id="IaA5Ap51ZnX1t-axa5gd-8" value="" style="whiteSpace=wrap;html=1;aspect=fixed;" vertex="1" parent="1">
          <mxGeometry x="620" y="770" width="60" height="60" as="geometry" />
        </mxCell>
        <mxCell id="IaA5Ap51ZnX1t-axa5gd-9" value="Store" style="html=1;verticalAlign=bottom;endArrow=open;dashed=1;endSize=8;edgeStyle=elbowEdgeStyle;elbow=vertical;curved=0;rounded=0;exitX=1;exitY=0.75;exitDx=0;exitDy=0;" edge="1" parent="1" source="IaA5Ap51ZnX1t-axa5gd-4">
          <mxGeometry x="0.2143" relative="1" as="geometry">
            <mxPoint x="270" y="799.5" as="sourcePoint" />
            <mxPoint x="620" y="799.5" as="targetPoint" />
            <Array as="points">
              <mxPoint x="507.5" y="799.5" />
              <mxPoint x="477.5" y="789.5" />
              <mxPoint x="407.5" y="799.5" />
            </Array>
            <mxPoint x="1" as="offset" />
          </mxGeometry>
        </mxCell>
        <mxCell id="IaA5Ap51ZnX1t-axa5gd-10" value="View Enrolled Requests" style="html=1;verticalAlign=bottom;endArrow=open;dashed=1;endSize=8;edgeStyle=elbowEdgeStyle;elbow=vertical;curved=0;rounded=0;" edge="1" parent="1" target="aM9ryv3xv72pqoxQDRHE-1">
          <mxGeometry x="0.6288" y="20" relative="1" as="geometry">
            <mxPoint x="620" y="820" as="sourcePoint" />
            <mxPoint x="120" y="820" as="targetPoint" />
            <Array as="points">
              <mxPoint x="457.5" y="820" />
              <mxPoint x="527.5" y="810" />
              <mxPoint x="557.5" y="820" />
            </Array>
            <mxPoint as="offset" />
          </mxGeometry>
        </mxCell>
        <mxCell id="IaA5Ap51ZnX1t-axa5gd-11" value="View Enrolled Requests" style="html=1;verticalAlign=bottom;endArrow=open;dashed=1;endSize=8;edgeStyle=elbowEdgeStyle;elbow=vertical;curved=0;rounded=0;" edge="1" parent="1" source="07q8YKuR7XBwSqct6Cw1-2">
          <mxGeometry x="-0.1028" y="20" relative="1" as="geometry">
            <mxPoint x="620" y="841" as="sourcePoint" />
            <mxPoint x="450" y="840" as="targetPoint" />
            <Array as="points">
              <mxPoint x="650" y="840" />
              <mxPoint x="530" y="840" />
            </Array>
            <mxPoint as="offset" />
          </mxGeometry>
        </mxCell>
        <mxCell id="IaA5Ap51ZnX1t-axa5gd-12" value="" style="whiteSpace=wrap;html=1;aspect=fixed;" vertex="1" parent="1">
          <mxGeometry x="425" y="880" width="55" height="55" as="geometry" />
        </mxCell>
        <mxCell id="IaA5Ap51ZnX1t-axa5gd-13" value="" style="endArrow=classic;html=1;rounded=0;" edge="1" parent="1">
          <mxGeometry relative="1" as="geometry">
            <mxPoint x="454.5" y="870" as="sourcePoint" />
            <mxPoint x="482.5" y="905" as="targetPoint" />
            <Array as="points">
              <mxPoint x="502.5" y="870" />
              <mxPoint x="502.5" y="905" />
            </Array>
          </mxGeometry>
        </mxCell>
        <mxCell id="IaA5Ap51ZnX1t-axa5gd-14" value="Confirms/Cancels" style="edgeLabel;resizable=0;html=1;align=center;verticalAlign=middle;" connectable="0" vertex="1" parent="IaA5Ap51ZnX1t-axa5gd-13">
          <mxGeometry relative="1" as="geometry">
            <mxPoint x="28" y="8" as="offset" />
          </mxGeometry>
        </mxCell>
        <mxCell id="IaA5Ap51ZnX1t-axa5gd-15" value="Store" style="html=1;verticalAlign=bottom;endArrow=open;dashed=1;endSize=8;edgeStyle=elbowEdgeStyle;elbow=vertical;curved=0;rounded=0;" edge="1" parent="1">
          <mxGeometry x="0.2857" relative="1" as="geometry">
            <mxPoint x="480" y="920" as="sourcePoint" />
            <mxPoint x="620" y="920" as="targetPoint" />
            <Array as="points">
              <mxPoint x="500" y="920" />
              <mxPoint x="620" y="920" />
            </Array>
            <mxPoint as="offset" />
          </mxGeometry>
        </mxCell>
        <mxCell id="IaA5Ap51ZnX1t-axa5gd-16" value="" style="whiteSpace=wrap;html=1;aspect=fixed;" vertex="1" parent="1">
          <mxGeometry x="620" y="890" width="60" height="60" as="geometry" />
        </mxCell>
        <mxCell id="IaA5Ap51ZnX1t-axa5gd-18" value="Status mails to students" style="html=1;verticalAlign=bottom;endArrow=open;dashed=1;endSize=8;edgeStyle=elbowEdgeStyle;elbow=vertical;curved=0;rounded=0;" edge="1" parent="1" source="07q8YKuR7XBwSqct6Cw1-2">
          <mxGeometry x="0.6194" relative="1" as="geometry">
            <mxPoint x="620" y="960" as="sourcePoint" />
            <mxPoint x="270" y="960" as="targetPoint" />
            <Array as="points">
              <mxPoint x="407.5" y="960" />
              <mxPoint x="477.5" y="950" />
              <mxPoint x="507.5" y="960" />
            </Array>
            <mxPoint as="offset" />
          </mxGeometry>
        </mxCell>
      </root>
    </mxGraphModel>
  </diagram>
</mxfile>
